<mxfile host="65bd71144e">
    <diagram id="6oOy90CilISBNYGEaLhb" name="Page-1">
        <mxGraphModel dx="672" dy="1663" grid="1" gridSize="10" guides="1" tooltips="1" connect="1" arrows="1" fold="1" page="1" pageScale="1" pageWidth="850" pageHeight="1100" math="0" shadow="0">
            <root>
                <mxCell id="0"/>
                <mxCell id="1" parent="0"/>
                <mxCell id="2" value="" style="rounded=1;whiteSpace=wrap;html=1;" parent="1" vertex="1">
                    <mxGeometry x="250" y="-40" width="290" height="420" as="geometry"/>
                </mxCell>
                <mxCell id="3" value="tel aviv" style="rounded=0;whiteSpace=wrap;html=1;" parent="1" vertex="1">
                    <mxGeometry x="335" y="-20" width="120" height="20" as="geometry"/>
                </mxCell>
                <mxCell id="4" value="SEND" style="rounded=1;whiteSpace=wrap;html=1;" parent="1" vertex="1">
                    <mxGeometry x="470" y="-25" width="50" height="30" as="geometry"/>
                </mxCell>
                <mxCell id="5" value="Search:" style="text;strokeColor=none;align=center;fillColor=none;html=1;verticalAlign=middle;whiteSpace=wrap;rounded=0;" parent="1" vertex="1">
                    <mxGeometry x="260" y="-25" width="60" height="30" as="geometry"/>
                </mxCell>
                <mxCell id="6" value="" style="verticalLabelPosition=bottom;verticalAlign=top;html=1;shape=mxgraph.basic.sun" parent="1" vertex="1">
                    <mxGeometry x="352.5" y="140" width="85" height="80" as="geometry"/>
                </mxCell>
                <mxCell id="7" value="&lt;font style=&quot;font-size: 19px;&quot;&gt;Tel AVIV&lt;/font&gt;" style="text;strokeColor=none;align=center;fillColor=none;html=1;verticalAlign=middle;whiteSpace=wrap;rounded=0;" parent="1" vertex="1">
                    <mxGeometry x="352.5" y="50" width="90" height="30" as="geometry"/>
                </mxCell>
                <mxCell id="8" value="25C" style="text;strokeColor=none;align=center;fillColor=none;html=1;verticalAlign=middle;whiteSpace=wrap;rounded=0;fontSize=19;" parent="1" vertex="1">
                    <mxGeometry x="365" y="90" width="60" height="30" as="geometry"/>
                </mxCell>
                <mxCell id="9" value="Sunny" style="text;strokeColor=none;align=center;fillColor=none;html=1;verticalAlign=middle;whiteSpace=wrap;rounded=0;fontSize=19;" parent="1" vertex="1">
                    <mxGeometry x="365" y="260" width="60" height="30" as="geometry"/>
                </mxCell>
                <mxCell id="10" value="" style="rounded=1;whiteSpace=wrap;html=1;" parent="1" vertex="1">
                    <mxGeometry x="590" y="-40" width="290" height="420" as="geometry"/>
                </mxCell>
                <mxCell id="11" value="gjfdhgjfdhgfd" style="rounded=0;whiteSpace=wrap;html=1;" parent="1" vertex="1">
                    <mxGeometry x="675" y="-20" width="120" height="20" as="geometry"/>
                </mxCell>
                <mxCell id="12" value="SEND" style="rounded=1;whiteSpace=wrap;html=1;" parent="1" vertex="1">
                    <mxGeometry x="810" y="-25" width="50" height="30" as="geometry"/>
                </mxCell>
                <mxCell id="13" value="Search:" style="text;strokeColor=none;align=center;fillColor=none;html=1;verticalAlign=middle;whiteSpace=wrap;rounded=0;" parent="1" vertex="1">
                    <mxGeometry x="600" y="-25" width="60" height="30" as="geometry"/>
                </mxCell>
                <mxCell id="15" value="&lt;font style=&quot;font-size: 19px;&quot;&gt;city not found&lt;/font&gt;" style="text;strokeColor=none;align=center;fillColor=none;html=1;verticalAlign=middle;whiteSpace=wrap;rounded=0;" parent="1" vertex="1">
                    <mxGeometry x="662.5" y="155" width="147.5" height="30" as="geometry"/>
                </mxCell>
            </root>
        </mxGraphModel>
    </diagram>
    <diagram name="Copy of Page-1" id="PGo2bhodLKbWe4tWnrrw">
        <mxGraphModel dx="672" dy="1663" grid="1" gridSize="10" guides="1" tooltips="1" connect="1" arrows="1" fold="1" page="1" pageScale="1" pageWidth="850" pageHeight="1100" math="0" shadow="0">
            <root>
                <mxCell id="AqCAi_rs7Kj6kBvlX-lf-0"/>
                <mxCell id="AqCAi_rs7Kj6kBvlX-lf-1" parent="AqCAi_rs7Kj6kBvlX-lf-0"/>
                <mxCell id="AqCAi_rs7Kj6kBvlX-lf-2" value="" style="rounded=1;whiteSpace=wrap;html=1;" vertex="1" parent="AqCAi_rs7Kj6kBvlX-lf-1">
                    <mxGeometry x="250" y="-40" width="300" height="570" as="geometry"/>
                </mxCell>
                <mxCell id="AqCAi_rs7Kj6kBvlX-lf-3" value="tel aviv" style="rounded=0;whiteSpace=wrap;html=1;" vertex="1" parent="AqCAi_rs7Kj6kBvlX-lf-1">
                    <mxGeometry x="335" y="-20" width="120" height="20" as="geometry"/>
                </mxCell>
                <mxCell id="AqCAi_rs7Kj6kBvlX-lf-4" value="Send" style="rounded=1;whiteSpace=wrap;html=1;" vertex="1" parent="AqCAi_rs7Kj6kBvlX-lf-1">
                    <mxGeometry x="470" y="-25" width="50" height="30" as="geometry"/>
                </mxCell>
                <mxCell id="AqCAi_rs7Kj6kBvlX-lf-5" value="Search:" style="text;strokeColor=none;align=center;fillColor=none;html=1;verticalAlign=middle;whiteSpace=wrap;rounded=0;" vertex="1" parent="AqCAi_rs7Kj6kBvlX-lf-1">
                    <mxGeometry x="260" y="-25" width="60" height="30" as="geometry"/>
                </mxCell>
                <mxCell id="AqCAi_rs7Kj6kBvlX-lf-6" value="" style="verticalLabelPosition=bottom;verticalAlign=top;html=1;shape=mxgraph.basic.sun" vertex="1" parent="AqCAi_rs7Kj6kBvlX-lf-1">
                    <mxGeometry x="355" y="90" width="85" height="80" as="geometry"/>
                </mxCell>
                <mxCell id="AqCAi_rs7Kj6kBvlX-lf-7" value="&lt;font style=&quot;font-size: 19px;&quot;&gt;Tel AVIV&lt;/font&gt;" style="text;strokeColor=none;align=center;fillColor=none;html=1;verticalAlign=middle;whiteSpace=wrap;rounded=0;" vertex="1" parent="AqCAi_rs7Kj6kBvlX-lf-1">
                    <mxGeometry x="352.5" y="20" width="90" height="30" as="geometry"/>
                </mxCell>
                <mxCell id="AqCAi_rs7Kj6kBvlX-lf-8" value="25°C" style="text;strokeColor=none;align=center;fillColor=none;html=1;verticalAlign=middle;whiteSpace=wrap;rounded=0;fontSize=19;" vertex="1" parent="AqCAi_rs7Kj6kBvlX-lf-1">
                    <mxGeometry x="367.5" y="60" width="60" height="30" as="geometry"/>
                </mxCell>
                <mxCell id="AqCAi_rs7Kj6kBvlX-lf-9" value="Sunny" style="text;strokeColor=none;align=center;fillColor=none;html=1;verticalAlign=middle;whiteSpace=wrap;rounded=0;fontSize=19;" vertex="1" parent="AqCAi_rs7Kj6kBvlX-lf-1">
                    <mxGeometry x="367.5" y="185" width="60" height="30" as="geometry"/>
                </mxCell>
                <mxCell id="AqCAi_rs7Kj6kBvlX-lf-10" value="" style="rounded=1;whiteSpace=wrap;html=1;" vertex="1" parent="AqCAi_rs7Kj6kBvlX-lf-1">
                    <mxGeometry x="590" y="-40" width="300" height="570" as="geometry"/>
                </mxCell>
                <mxCell id="AqCAi_rs7Kj6kBvlX-lf-11" value="gjfdhgjfdhgfd" style="rounded=0;whiteSpace=wrap;html=1;" vertex="1" parent="AqCAi_rs7Kj6kBvlX-lf-1">
                    <mxGeometry x="675" y="-20" width="120" height="20" as="geometry"/>
                </mxCell>
                <mxCell id="AqCAi_rs7Kj6kBvlX-lf-12" value="Send" style="rounded=1;whiteSpace=wrap;html=1;" vertex="1" parent="AqCAi_rs7Kj6kBvlX-lf-1">
                    <mxGeometry x="810" y="-25" width="50" height="30" as="geometry"/>
                </mxCell>
                <mxCell id="AqCAi_rs7Kj6kBvlX-lf-13" value="Search:" style="text;strokeColor=none;align=center;fillColor=none;html=1;verticalAlign=middle;whiteSpace=wrap;rounded=0;" vertex="1" parent="AqCAi_rs7Kj6kBvlX-lf-1">
                    <mxGeometry x="600" y="-25" width="60" height="30" as="geometry"/>
                </mxCell>
                <mxCell id="AqCAi_rs7Kj6kBvlX-lf-14" value="&lt;font style=&quot;font-size: 19px;&quot;&gt;city not found&lt;/font&gt;" style="text;strokeColor=none;align=center;fillColor=none;html=1;verticalAlign=middle;whiteSpace=wrap;rounded=0;" vertex="1" parent="AqCAi_rs7Kj6kBvlX-lf-1">
                    <mxGeometry x="665.25" y="240" width="147.5" height="30" as="geometry"/>
                </mxCell>
                <mxCell id="XyN-tGAEokGD4j987cId-0" value="Lows: 22°C | Highs: 27°C" style="text;strokeColor=none;align=center;fillColor=none;html=1;verticalAlign=middle;whiteSpace=wrap;rounded=0;fontSize=19;" vertex="1" parent="AqCAi_rs7Kj6kBvlX-lf-1">
                    <mxGeometry x="282.5" y="220" width="230" height="30" as="geometry"/>
                </mxCell>
                <mxCell id="XyN-tGAEokGD4j987cId-1" value="" style="rounded=1;whiteSpace=wrap;html=1;" vertex="1" parent="AqCAi_rs7Kj6kBvlX-lf-1">
                    <mxGeometry x="288.13" y="400" width="223.75" height="110" as="geometry"/>
                </mxCell>
                <mxCell id="XyN-tGAEokGD4j987cId-4" value="Sunrise&lt;br&gt;6:21" style="text;html=1;strokeColor=none;fillColor=none;align=center;verticalAlign=middle;whiteSpace=wrap;rounded=0;" vertex="1" parent="AqCAi_rs7Kj6kBvlX-lf-1">
                    <mxGeometry x="304.38" y="470" width="60" height="30" as="geometry"/>
                </mxCell>
                <mxCell id="XyN-tGAEokGD4j987cId-5" value="Sunset&lt;br&gt;19:00" style="text;html=1;strokeColor=none;fillColor=none;align=center;verticalAlign=middle;whiteSpace=wrap;rounded=0;" vertex="1" parent="AqCAi_rs7Kj6kBvlX-lf-1">
                    <mxGeometry x="425.63" y="470" width="60" height="30" as="geometry"/>
                </mxCell>
                <mxCell id="XyN-tGAEokGD4j987cId-8" value="" style="html=1;verticalLabelPosition=bottom;align=center;labelBackgroundColor=#ffffff;verticalAlign=top;strokeWidth=2;strokeColor=#0080F0;shadow=0;dashed=0;shape=mxgraph.ios7.icons.sun;pointerEvents=1" vertex="1" parent="AqCAi_rs7Kj6kBvlX-lf-1">
                    <mxGeometry x="324.38" y="427.5" width="30" height="30" as="geometry"/>
                </mxCell>
                <mxCell id="XyN-tGAEokGD4j987cId-9" value="" style="html=1;verticalLabelPosition=bottom;align=center;labelBackgroundColor=#ffffff;verticalAlign=top;strokeWidth=2;strokeColor=#0080F0;shadow=0;dashed=0;shape=mxgraph.ios7.icons.sun;pointerEvents=1" vertex="1" parent="AqCAi_rs7Kj6kBvlX-lf-1">
                    <mxGeometry x="440.63" y="420.63" width="30" height="30" as="geometry"/>
                </mxCell>
                <mxCell id="XyN-tGAEokGD4j987cId-10" value="" style="ellipse;whiteSpace=wrap;html=1;aspect=fixed;strokeColor=none;" vertex="1" parent="AqCAi_rs7Kj6kBvlX-lf-1">
                    <mxGeometry x="314.38" y="435" width="27.5" height="27.5" as="geometry"/>
                </mxCell>
                <mxCell id="XyN-tGAEokGD4j987cId-12" value="" style="ellipse;whiteSpace=wrap;html=1;aspect=fixed;strokeColor=none;" vertex="1" parent="AqCAi_rs7Kj6kBvlX-lf-1">
                    <mxGeometry x="441.88" y="436.88" width="27.5" height="27.5" as="geometry"/>
                </mxCell>
                <mxCell id="XyN-tGAEokGD4j987cId-15" value="Humidity: 34%" style="rounded=1;whiteSpace=wrap;html=1;" vertex="1" parent="AqCAi_rs7Kj6kBvlX-lf-1">
                    <mxGeometry x="335" y="300" width="120" height="20" as="geometry"/>
                </mxCell>
                <mxCell id="XyN-tGAEokGD4j987cId-17" value="UVI Index:&amp;nbsp; 30" style="rounded=1;whiteSpace=wrap;html=1;" vertex="1" parent="AqCAi_rs7Kj6kBvlX-lf-1">
                    <mxGeometry x="335" y="330" width="120" height="20" as="geometry"/>
                </mxCell>
                <mxCell id="oFHuVcw_-1wIn6OmxFPG-0" value="Wind Speed: 5km/h" style="rounded=1;whiteSpace=wrap;html=1;" vertex="1" parent="AqCAi_rs7Kj6kBvlX-lf-1">
                    <mxGeometry x="335" y="360" width="120" height="20" as="geometry"/>
                </mxCell>
                <mxCell id="oFHuVcw_-1wIn6OmxFPG-1" value="" style="aspect=fixed;html=1;points=[];align=center;image;fontSize=12;image=img/lib/azure2/general/Information.svg;" vertex="1" parent="AqCAi_rs7Kj6kBvlX-lf-1">
                    <mxGeometry x="304.38" y="260" width="20" height="20" as="geometry"/>
                </mxCell>
                <mxCell id="oFHuVcw_-1wIn6OmxFPG-2" value="&lt;span style=&quot;font-size: 19px;&quot;&gt;Feels Like: 24°C&lt;/span&gt;" style="text;html=1;strokeColor=none;fillColor=none;align=center;verticalAlign=middle;whiteSpace=wrap;rounded=0;" vertex="1" parent="AqCAi_rs7Kj6kBvlX-lf-1">
                    <mxGeometry x="324.38" y="255" width="162.5" height="30" as="geometry"/>
                </mxCell>
            </root>
        </mxGraphModel>
    </diagram>
</mxfile>